<svg xmlns="http://www.w3.org/2000/svg" viewBox="0 0 300 150" width="300" height="150" fill="none"><rect width="300" height="150" fill="#1B1B1D"/><rect x="13.5" y="36.0" width="63.8" height="84.0" fill="#E4572E"/><circle cx="45.4" cy="78.0" r="10.8" fill="#1B1B1D" opacity="0.55"/><rect x="83.2" y="36.0" width="63.8" height="84.0" fill="#FBE12D"/><circle cx="115.1" cy="78.0" r="10.8" fill="#1B1B1D" opacity="0.55"/><rect x="153.0" y="36.0" width="63.8" height="84.0" fill="#4C6EF5"/><circle cx="184.9" cy="78.0" r="10.8" fill="#1B1B1D" opacity="0.55"/><rect x="222.8" y="36.0" width="63.8" height="84.0" fill="#7FB2A0"/><circle cx="254.6" cy="78.0" r="10.8" fill="#1B1B1D" opacity="0.55"/><rect x="13.5" y="15.8" width="9.6" height="9.0" rx="1.5" fill="#F2EFEA" opacity="0.3"/><rect x="36.0" y="15.8" width="9.6" height="9.0" rx="1.5" fill="#F2EFEA" opacity="0.3"/><rect x="58.5" y="15.8" width="9.6" height="9.0" rx="1.5" fill="#F2EFEA" opacity="0.3"/><rect x="81.0" y="15.8" width="9.6" height="9.0" rx="1.5" fill="#F2EFEA" opacity="0.3"/><rect x="103.5" y="15.8" width="9.6" height="9.0" rx="1.5" fill="#F2EFEA" opacity="0.3"/><rect x="126.0" y="15.8" width="9.6" height="9.0" rx="1.5" fill="#F2EFEA" opacity="0.3"/><rect x="148.5" y="15.8" width="9.6" height="9.0" rx="1.5" fill="#F2EFEA" opacity="0.3"/><rect x="171.0" y="15.8" width="9.6" height="9.0" rx="1.5" fill="#F2EFEA" opacity="0.3"/><rect x="193.5" y="15.8" width="9.6" height="9.0" rx="1.5" fill="#F2EFEA" opacity="0.3"/><rect x="216.0" y="15.8" width="9.6" height="9.0" rx="1.5" fill="#F2EFEA" opacity="0.3"/><rect x="238.5" y="15.8" width="9.6" height="9.0" rx="1.5" fill="#F2EFEA" opacity="0.3"/><rect x="261.0" y="15.8" width="9.6" height="9.0" rx="1.5" fill="#F2EFEA" opacity="0.3"/><rect x="283.5" y="15.8" width="9.6" height="9.0" rx="1.5" fill="#F2EFEA" opacity="0.3"/><rect x="14" y="129" width="102" height="3.5" rx="1.75" fill="#F2EFEA" opacity="0.50"/><rect x="14" y="140" width="84" height="3.5" rx="1.75" fill="#F2EFEA" opacity="0.38"/></svg>
